<svg xmlns="http://www.w3.org/2000/svg" xmlns:xlink="http://www.w3.org/1999/xlink" style="width:0;height:0;visibility:hidden;">
<defs/>
<symbol id="rd-icon-spotter" viewBox="0 0 1366 1366" fill="black">
<path xmlns="http://www.w3.org/2000/svg" d="M681.3,49.4C331.4,49.4,47.7,333.1,47.7,683.1s283.7,633.6,633.6,633.6,633.7-283.7,633.7-633.6S1031.3,49.4,681.3,49.4ZM681.3,1161.3c-264.1,0-478.2-214.1-478.2-478.2s214.1-478.2,478.2-478.2,478.2,214.1,478.2,478.2-214.1,478.2-478.2,478.2Z"/>
<path xmlns="http://www.w3.org/2000/svg" d="M681.4,286.1c-219.3,0-397,177.8-397,397s177.7,397,397,397,396.9-177.8,396.9-397-177.7-397-396.9-397ZM681.3,872.4c-104.6,0-189.4-84.7-189.4-189.3s84.7-189.4,189.4-189.4,189.3,84.7,189.3,189.4-84.7,189.3-189.3,189.3Z"/>
</symbol>
</svg>