<svg xmlns="http://www.w3.org/2000/svg" viewBox="0 0 368.008 368.008">
  <path d="M368 88.004a8 8 0 00-.6-2.976c-.152-.376-.416-.664-.624-1.016-.272-.456-.472-.952-.832-1.352l-72.008-80a7.98 7.98 0 00-5.944-2.656h-136c-13.232 0-24 10.768-24 24v40H24c-13.232 0-24 10.768-24 24v256c0 13.232 10.768 24 24 24h192c13.232 0 24-10.768 24-24v-40h104c13.232 0 24-10.768 24-24v-175.96c0-.016.008-.024.008-.04l-.008-16zm-144 256c0 4.408-3.592 8-8 8H24c-4.408 0-8-3.592-8-8v-256c0-4.408 3.592-8 8-8h104v88c0 4.416 3.584 8 8 8h88v168zm0-184h-80v-80h4.688L224 155.324v4.68zm128 120c0 4.416-3.592 8-8 8H240v-119.64c0-.12.008-.24.008-.36l-.008-16v-.024a7.942 7.942 0 00-2.184-5.464c0-.016-.024-.016-.016-.016 0 0-.008-.008-.008-.016a.017.017 0 01-.016-.016l-.112-.112-80-80A8.019 8.019 0 00152 64.004h-8.008v-40c0-4.408 3.592-8 8-8h112v88c0 4.416 3.584 8 8 8H352v168zm0-184h-72.008v-80h4.44L352 91.076v4.928z"/>
</svg>
